<!DOCTYPE svg PUBLIC "-//W3C//DTD SVG 20010904//EN" "http://www.w3.org/TR/2001/REC-SVG-20010904/DTD/svg10.dtd">
<svg version="1.0" xmlns="http://www.w3.org/2000/svg" width="300px" height="300px" viewBox="0 0 3000 3000" preserveAspectRatio="xMidYMid meet">
<g id="layer101" fill="#f79821" stroke="none">
 <path d="M562 2115 c-51 -13 -89 -28 -161 -63 -49 -25 -165 -135 -195 -186 -43 -73 -56 -125 -56 -224 0 -93 14 -157 49 -225 60 -115 130 -189 232 -246 38 -21 67 -40 65 -42 -8 -8 24 -194 40 -239 102 -275 367 -461 659 -461 266 0 482 132 630 386 10 16 13 16 55 -6 39 -21 59 -24 150 -24 95 0 110 3 157 27 98 52 178 161 190 256 l6 50 44 6 c97 13 235 94 312 183 23 27 61 86 84 132 l42 84 0 116 c0 112 -1 119 -34 186 -46 95 -141 188 -241 237 -145 71 -98 68 -1086 67 -688 -1 -901 -4 -942 -14z"/>
 </g>
<g id="layer102" fill="#fffdfc" stroke="none">
 <path d="M1913 1824 c-17 -9 -39 -24 -48 -34 -22 -25 -44 -87 -45 -128 l0 -33 53 3 52 3 6 43 c8 60 36 85 95 85 60 0 94 -33 94 -93 0 -54 -37 -91 -120 -120 -93 -32 -126 -55 -149 -104 -27 -54 -27 -118 0 -172 40 -83 176 -120 276 -75 51 23 74 57 81 116 l5 45 -50 0 c-49 0 -50 0 -62 -40 -13 -45 -35 -60 -83 -60 -40 1 -64 17 -78 55 -24 64 17 120 112 150 75 24 136 61 152 93 52 101 14 229 -80 268 -45 19 -171 18 -211 -2z"/>
 <path d="M654 1813 c3 -10 42 -146 86 -303 44 -157 83 -293 86 -303 5 -15 15 -17 72 -15 l65 3 77 290 c42 160 80 302 84 318 6 27 6 27 -48 27 l-54 0 -18 -75 -18 -76 -95 3 -94 3 -20 73 -19 72 -55 0 c-47 0 -54 -2 -49 -17z m301 -260 c-3 -21 -19 -90 -34 -153 l-27 -115 -37 147 c-20 81 -37 150 -37 153 0 3 32 5 71 5 l71 0 -7 -37z"/>
 <path d="M1235 1808 c-14 -65 -115 -597 -115 -607 0 -7 20 -11 50 -11 43 0 50 3 55 23 8 37 75 434 75 448 0 39 12 -19 45 -206 19 -116 38 -222 41 -237 5 -26 9 -28 59 -28 l53 0 11 63 c6 34 25 143 42 242 17 99 32 181 33 182 1 2 19 -102 40 -230 22 -127 41 -238 43 -244 5 -14 103 -19 102 -5 0 4 -28 147 -62 317 l-62 310 -61 3 -61 3 -21 -123 c-12 -68 -29 -169 -38 -226 -10 -56 -20 -99 -24 -95 -4 4 -22 98 -39 208 -18 110 -35 208 -37 218 -4 14 -17 17 -64 17 -54 0 -60 -2 -65 -22z"/>
 </g>

</svg>