<!DOCTYPE svg PUBLIC "-//W3C//DTD SVG 20010904//EN" "http://www.w3.org/TR/2001/REC-SVG-20010904/DTD/svg10.dtd">
<svg version="1.0" xmlns="http://www.w3.org/2000/svg" width="1176px" height="1600px" viewBox="0 0 11760 16000" preserveAspectRatio="xMidYMid meet">
<g id="layer101" fill="#020303" stroke="none">
 <path d="M1710 15982 c-19 -9 -40 -22 -46 -28 -7 -6 -25 -22 -42 -35 -16 -14 -42 -44 -57 -67 -17 -25 -35 -42 -47 -42 -104 0 -220 -226 -205 -397 9 -101 57 -220 125 -311 70 -93 275 -282 379 -349 16 -10 36 -25 46 -34 10 -9 33 -25 52 -35 19 -10 35 -22 35 -26 0 -4 15 -15 33 -24 17 -9 40 -25 51 -36 18 -19 17 -21 -60 -98 -109 -108 -159 -162 -235 -255 -77 -95 -169 -221 -169 -234 0 -5 -6 -14 -14 -20 -8 -7 -22 -26 -31 -44 -9 -18 -24 -45 -35 -62 -61 -97 -163 -306 -218 -445 -5 -14 -15 -38 -22 -55 -42 -104 -138 -421 -160 -530 -7 -33 -18 -82 -25 -110 -7 -27 -18 -86 -25 -130 -6 -44 -18 -114 -25 -155 -8 -41 -19 -120 -24 -175 -6 -55 -19 -170 -28 -255 -25 -222 -25 -1239 0 -1570 9 -124 22 -297 27 -385 6 -88 17 -236 25 -330 8 -93 19 -237 25 -320 6 -82 17 -229 25 -325 8 -96 16 -221 19 -278 4 -93 3 -103 -12 -97 -10 4 -29 11 -43 15 -38 11 -86 37 -162 87 -148 98 -349 173 -463 173 -105 0 -213 -59 -253 -139 -10 -20 -26 -65 -35 -101 -12 -50 -24 -71 -51 -96 -19 -17 -35 -35 -35 -41 0 -6 -7 -16 -15 -23 -20 -17 -21 -170 -1 -208 7 -15 22 -44 32 -65 11 -21 27 -47 36 -57 10 -11 18 -21 18 -24 0 -3 19 -26 42 -51 93 -102 275 -209 448 -265 51 -16 101 -30 111 -30 9 0 44 -6 76 -14 32 -8 118 -18 191 -21 l132 -7 0 -67 c0 -88 -17 -401 -35 -636 -8 -104 -19 -257 -25 -340 -6 -82 -17 -220 -25 -305 -8 -85 -19 -216 -24 -290 -6 -74 -17 -220 -26 -325 -43 -551 -48 -661 -48 -1160 0 -392 3 -538 17 -675 18 -189 41 -382 56 -471 6 -30 10 -68 10 -83 0 -16 6 -54 14 -85 7 -31 19 -87 26 -126 11 -63 27 -134 50 -222 7 -28 5 -33 -14 -38 -58 -17 -289 -133 -306 -154 -3 -3 -23 -18 -45 -32 -54 -36 -173 -153 -221 -220 -56 -76 -87 -133 -116 -214 -53 -144 -58 -174 -58 -334 0 -152 13 -239 46 -319 8 -18 14 -39 14 -48 0 -34 119 -262 142 -272 5 -2 8 -8 8 -14 0 -35 189 -230 301 -310 131 -94 310 -170 487 -207 76 -16 322 -13 417 4 125 22 351 104 415 149 45 32 61 37 78 24 9 -7 19 -16 22 -19 13 -16 142 -115 205 -157 38 -26 72 -50 73 -54 2 -5 7 -8 12 -8 4 0 35 -18 68 -40 33 -22 64 -40 70 -40 6 0 12 -4 14 -9 10 -28 479 -254 638 -308 25 -8 59 -21 75 -29 30 -13 232 -80 315 -104 25 -7 63 -18 85 -26 22 -7 65 -18 95 -25 30 -6 69 -16 85 -21 17 -6 68 -18 115 -28 138 -29 192 -41 255 -55 33 -8 94 -19 135 -25 41 -7 107 -18 145 -25 39 -7 111 -18 160 -25 50 -6 133 -18 185 -25 52 -7 147 -18 210 -25 63 -6 176 -18 251 -26 110 -13 218 -15 570 -11 239 2 490 10 559 16 69 6 184 16 255 22 72 6 173 17 225 24 52 7 136 19 185 25 50 7 124 18 165 26 41 8 100 19 130 25 30 6 71 15 92 20 20 5 56 13 80 18 43 9 185 47 288 77 30 8 69 20 85 24 28 8 120 41 207 73 21 7 41 16 44 20 4 4 13 7 21 7 7 0 43 14 80 31 38 17 84 38 103 46 40 18 155 74 185 91 134 73 176 99 373 231 20 13 45 32 56 43 12 11 36 28 53 39 18 12 33 25 33 30 0 5 7 9 15 9 8 0 15 5 15 10 0 16 32 10 65 -10 47 -29 225 -117 275 -135 136 -49 332 -80 450 -72 325 23 600 161 815 407 136 156 222 328 279 562 22 90 22 338 0 422 -27 108 -37 141 -50 166 -7 14 -20 41 -29 60 -53 113 -156 242 -260 325 -27 22 -51 43 -53 48 -2 4 -10 7 -18 7 -8 0 -14 3 -14 8 0 13 -261 152 -286 152 -24 0 -27 22 -11 79 34 122 40 150 64 261 26 125 39 195 53 280 5 30 14 80 19 110 31 163 83 580 100 795 6 72 15 195 22 275 21 268 28 530 38 1535 6 550 15 1119 21 1265 5 146 10 284 10 306 l0 41 113 13 c351 38 646 181 796 385 67 91 91 155 91 245 0 68 -4 86 -24 118 -13 21 -35 46 -49 55 -15 9 -28 30 -32 49 -15 76 -51 161 -82 193 -68 70 -163 95 -285 75 -126 -20 -224 -60 -367 -147 -57 -35 -105 -62 -108 -60 -2 3 3 94 11 203 15 190 19 269 48 854 17 330 17 1077 0 1340 -23 377 -43 578 -78 800 -8 52 -19 127 -25 165 -6 39 -17 102 -25 140 -8 39 -20 102 -28 140 -21 106 -64 280 -92 370 -8 28 -19 66 -24 85 -24 95 -67 227 -85 263 -8 16 -15 35 -15 42 0 12 -24 75 -64 170 -7 17 -19 44 -26 60 -7 17 -19 44 -26 60 -34 81 -191 392 -204 405 -7 7 -24 36 -51 85 -11 22 -24 42 -28 45 -3 3 -28 39 -56 80 -27 41 -57 82 -65 90 -8 8 -29 34 -46 57 -35 48 -124 152 -201 234 l-53 55 54 40 c107 78 306 263 306 284 0 6 4 10 10 10 5 0 29 26 52 58 24 31 45 59 48 62 18 18 72 107 103 172 55 113 70 170 70 278 1 101 -11 147 -51 214 -28 45 -125 146 -141 146 -6 0 -19 8 -29 18 -30 29 -90 72 -101 72 -6 0 -11 4 -11 9 0 4 -21 17 -47 27 -37 14 -73 19 -153 19 -94 -1 -111 -3 -163 -29 -31 -15 -63 -33 -70 -39 -6 -7 -36 -30 -65 -51 -49 -36 -162 -154 -277 -291 -138 -164 -236 -260 -326 -321 -66 -44 -93 -53 -104 -35 -9 15 -283 143 -420 196 -38 15 -83 33 -100 40 -16 7 -48 18 -70 25 -22 7 -53 18 -70 25 -16 7 -70 25 -120 40 -49 15 -108 33 -130 40 -22 7 -60 18 -85 25 -25 6 -67 18 -95 25 -27 8 -70 19 -95 24 -25 5 -74 17 -110 25 -110 26 -202 44 -275 56 -38 6 -104 18 -145 25 -41 8 -120 19 -175 25 -55 6 -149 18 -210 25 -250 31 -438 40 -910 40 -474 0 -665 -9 -905 -40 -58 -7 -148 -19 -200 -25 -52 -6 -126 -17 -165 -25 -38 -7 -104 -18 -145 -25 -41 -7 -100 -18 -130 -25 -30 -8 -84 -20 -120 -29 -163 -38 -356 -88 -405 -105 -41 -14 -154 -50 -190 -61 -16 -4 -95 -34 -175 -65 -80 -31 -157 -59 -172 -62 -38 -7 -204 36 -273 71 -16 8 -41 20 -55 25 -35 15 -46 22 -150 98 -74 54 -96 72 -119 93 -9 9 -41 36 -71 60 -30 25 -57 47 -60 51 -18 21 -236 189 -247 189 -7 0 -13 3 -13 8 0 4 -17 16 -37 27 -21 10 -44 24 -52 29 -7 6 -43 23 -79 38 -58 25 -79 28 -167 27 -72 0 -110 -5 -135 -17z"/>
 </g>
<g id="layer102" fill="#41423a" stroke="none">
 <path d="M1777 15906 c-83 -30 -164 -122 -154 -174 11 -56 85 -198 138 -265 42 -52 89 -144 89 -173 0 -13 -9 -28 -20 -34 -30 -16 -39 -6 -205 261 -21 35 -50 93 -62 128 -13 35 -25 66 -27 69 -6 6 -51 -29 -62 -49 -11 -18 -33 -66 -45 -94 -40 -97 -21 -249 43 -350 7 -11 23 -34 34 -53 25 -39 111 -130 180 -190 27 -24 58 -51 69 -61 79 -69 368 -271 388 -271 8 0 20 6 26 14 21 25 233 181 341 251 135 88 147 95 195 121 22 11 58 31 80 44 22 13 84 45 138 71 53 27 97 51 97 53 0 3 -33 15 -72 28 -145 46 -275 129 -513 328 -295 246 -384 305 -518 344 -66 19 -90 19 -140 2z"/>
 <path d="M9660 15753 c-82 -42 -223 -171 -350 -323 -165 -196 -304 -332 -388 -379 -14 -8 -13 -12 8 -30 14 -11 28 -20 33 -21 4 0 26 -12 50 -27 23 -15 49 -32 58 -38 114 -70 352 -250 466 -353 30 -26 57 -48 61 -50 18 -6 194 139 302 248 179 180 287 348 325 505 20 82 16 142 -15 212 -20 44 -104 143 -122 143 -4 0 -13 -19 -19 -42 -7 -24 -16 -47 -19 -53 -4 -5 -15 -34 -25 -64 -38 -117 -139 -275 -182 -287 -64 -17 -69 26 -12 98 53 67 72 106 135 268 l52 135 -21 17 c-12 10 -50 31 -84 48 -90 44 -156 42 -253 -7z"/>
 <path d="M5428 15655 c-2 -2 -57 -6 -123 -9 -203 -11 -301 -19 -405 -33 -30 -4 -58 -6 -63 -5 -4 1 -49 -5 -100 -13 -50 -8 -108 -17 -127 -19 -61 -8 -162 -25 -240 -41 -41 -8 -97 -19 -125 -24 -64 -12 -215 -47 -280 -65 -27 -8 -86 -24 -130 -36 -104 -29 -341 -106 -382 -125 -17 -8 -37 -15 -45 -15 -8 0 -18 -4 -24 -9 -5 -5 -34 -16 -64 -26 -30 -10 -84 -31 -120 -47 -160 -74 -256 -120 -270 -128 -8 -6 -46 -26 -85 -45 -109 -55 -171 -92 -290 -171 -160 -106 -261 -180 -296 -215 -9 -9 -47 -42 -85 -74 -130 -110 -300 -290 -409 -432 -83 -109 -105 -140 -105 -150 0 -5 -9 -18 -20 -28 -11 -10 -20 -22 -20 -26 0 -4 -20 -40 -44 -81 -24 -40 -70 -125 -101 -188 -64 -128 -73 -149 -127 -280 -6 -14 -14 -34 -19 -45 -69 -165 -194 -652 -214 -834 -3 -30 -7 -57 -9 -60 -4 -6 -12 -66 -22 -171 -3 -30 -7 -57 -9 -60 -2 -4 -7 -53 -10 -111 -4 -57 -8 -106 -10 -109 -10 -15 -19 -362 -20 -680 0 -326 12 -756 20 -771 2 -3 6 -63 9 -135 4 -71 8 -156 11 -189 2 -33 7 -94 10 -135 8 -128 14 -203 20 -265 3 -33 8 -91 10 -130 3 -38 7 -92 9 -120 7 -84 15 -187 21 -260 3 -38 7 -92 10 -120 2 -27 7 -99 11 -160 3 -60 7 -126 9 -145 27 -371 27 -1140 0 -1490 -2 -19 -6 -87 -9 -150 -4 -63 -9 -137 -11 -164 -3 -26 -7 -76 -9 -110 -14 -181 -18 -225 -21 -261 -3 -22 -7 -74 -10 -115 -3 -41 -7 -102 -10 -135 -3 -33 -8 -82 -10 -110 -3 -27 -7 -81 -10 -120 -3 -38 -8 -92 -11 -120 -2 -27 -7 -88 -9 -135 -3 -47 -7 -101 -10 -120 -5 -38 -15 -187 -20 -290 -2 -36 -7 -126 -11 -200 -5 -74 -9 -349 -9 -610 0 -493 5 -622 35 -880 34 -292 45 -361 86 -565 8 -38 19 -91 24 -118 5 -26 13 -62 19 -80 5 -17 14 -50 20 -72 5 -22 17 -65 26 -95 8 -30 20 -71 25 -90 21 -78 74 -235 86 -259 8 -14 14 -32 14 -39 0 -7 4 -20 10 -30 5 -9 26 -57 45 -107 48 -120 163 -348 232 -460 30 -49 64 -106 75 -125 11 -19 39 -59 61 -89 23 -29 49 -64 58 -77 127 -192 532 -571 743 -697 17 -11 40 -27 52 -38 11 -10 24 -19 28 -19 4 0 22 -11 39 -24 18 -14 43 -30 57 -35 14 -6 39 -20 55 -31 28 -18 293 -151 380 -190 123 -56 153 -69 180 -76 16 -4 40 -13 54 -20 14 -8 33 -14 42 -14 8 0 19 -4 25 -8 5 -5 29 -14 54 -21 25 -7 54 -17 65 -22 11 -5 43 -15 70 -23 28 -8 93 -26 145 -41 161 -46 173 -49 340 -90 105 -25 205 -45 355 -71 44 -7 116 -20 160 -28 44 -8 107 -17 139 -21 32 -3 62 -7 66 -10 3 -2 38 -7 76 -10 38 -3 87 -8 109 -12 22 -4 45 -8 50 -8 6 -1 37 -5 70 -9 79 -9 136 -15 215 -21 36 -3 99 -10 140 -14 88 -11 606 -11 800 0 74 4 182 10 240 13 58 4 121 8 140 11 19 2 69 7 110 10 85 7 100 9 190 20 36 5 68 8 71 7 7 -1 148 22 225 37 28 5 73 13 100 16 27 3 65 10 84 14 19 5 58 14 85 20 141 29 207 45 276 67 42 13 84 24 93 24 9 0 24 4 34 9 9 5 51 19 92 32 41 12 79 26 84 31 6 4 18 8 28 8 9 0 41 11 70 24 30 14 78 34 108 46 133 51 323 147 472 240 40 25 84 51 98 58 14 7 50 32 80 56 30 23 68 50 83 60 16 9 36 25 45 34 10 9 38 33 62 52 80 61 271 245 350 336 115 133 247 306 260 340 4 11 19 33 33 50 13 16 41 61 62 99 21 39 43 76 49 84 16 20 90 164 109 211 5 14 13 33 18 42 5 10 9 23 9 30 1 7 9 31 20 53 11 22 19 46 20 53 0 7 4 20 10 30 9 16 70 201 103 312 30 101 68 235 78 275 6 22 14 54 19 70 24 81 108 491 116 565 2 19 8 55 14 80 13 57 30 170 36 235 2 28 7 68 11 90 10 62 12 86 18 150 3 33 7 67 10 75 2 8 7 53 10 100 3 47 8 108 10 135 3 28 7 73 10 100 3 28 7 91 10 140 3 50 7 126 10 170 23 367 33 788 39 1765 6 849 17 1275 41 1630 4 47 8 126 10 175 2 50 6 117 9 150 8 89 16 198 21 305 3 52 7 121 10 152 3 32 7 109 10 170 3 62 8 154 11 203 4 50 8 115 10 145 26 446 26 1508 0 1800 -2 19 -6 74 -10 121 -4 48 -9 100 -11 115 -1 16 -6 63 -9 104 -4 41 -14 117 -22 169 -8 52 -17 113 -19 135 -4 40 -46 273 -64 351 -5 22 -18 85 -30 141 -11 56 -27 123 -35 150 -8 27 -26 90 -41 139 -29 103 -102 330 -115 360 -5 11 -12 31 -16 45 -4 14 -20 53 -35 88 -16 34 -29 65 -29 69 0 9 -74 169 -121 263 -88 173 -96 187 -162 288 -26 40 -47 75 -47 78 0 5 -77 107 -173 233 -24 30 -176 199 -213 235 -54 52 -158 148 -193 176 -24 19 -71 59 -106 88 -34 28 -67 52 -72 52 -6 0 -17 8 -24 17 -16 18 -227 160 -269 179 -8 4 -37 21 -65 38 -77 48 -253 139 -390 201 -27 13 -76 35 -107 49 -31 14 -64 26 -72 26 -8 0 -18 5 -21 10 -3 6 -14 10 -23 10 -9 1 -35 9 -57 20 -22 11 -48 19 -57 20 -9 0 -20 5 -23 10 -3 6 -14 10 -24 10 -10 0 -31 6 -47 14 -16 8 -63 24 -104 36 -41 11 -97 28 -125 36 -133 41 -286 79 -374 95 -30 5 -58 12 -63 15 -4 3 -29 9 -56 14 -26 4 -83 15 -127 24 -44 8 -96 17 -115 20 -19 2 -64 9 -100 15 -117 20 -269 41 -277 39 -4 -1 -39 2 -78 6 -38 5 -86 10 -105 11 -71 5 -209 16 -266 21 -61 5 -842 13 -846 9z m727 -9924 c17 -7 38 -17 47 -22 10 -5 24 -9 32 -9 29 0 115 -53 158 -98 64 -67 68 -91 62 -387 -2 -137 -6 -263 -9 -280 -2 -16 -4 -46 -4 -66 -1 -32 -5 -38 -40 -51 -28 -11 -41 -13 -43 -4 -6 16 -2 106 8 221 5 55 8 172 8 261 0 198 -11 237 -81 283 -26 17 -54 31 -63 31 -9 0 -20 4 -25 8 -6 5 -31 17 -57 26 -54 20 -90 13 -163 -30 -63 -38 -90 -64 -131 -129 l-39 -60 0 -215 c0 -118 4 -249 8 -290 3 -41 9 -119 12 -172 l6 -98 -33 0 c-73 0 -75 3 -84 103 -13 162 -14 178 -17 423 -3 227 -5 243 -25 275 -46 72 -176 168 -249 184 -56 11 -113 -12 -166 -68 -52 -55 -115 -175 -124 -236 -3 -20 -10 -43 -14 -52 -21 -41 -29 -238 -16 -369 l8 -76 -40 4 c-50 5 -53 15 -56 197 -5 299 86 542 241 641 127 81 262 47 426 -106 34 -33 65 -60 68 -60 3 0 25 27 49 59 59 82 142 136 251 164 30 8 57 13 60 13 3 -1 19 -8 35 -15z m-240 -1670 c104 -18 183 -35 191 -44 4 -4 18 -7 30 -7 13 0 25 -4 28 -9 4 -5 26 -16 50 -24 41 -14 152 -88 168 -112 3 -6 20 -24 36 -41 23 -24 30 -43 35 -92 12 -114 -15 -195 -95 -280 -53 -56 -87 -81 -153 -111 -27 -13 -58 -27 -67 -32 -36 -18 -246 -47 -323 -45 -90 3 -244 31 -292 52 -17 8 -36 14 -42 14 -30 0 -143 73 -201 130 -95 94 -126 162 -137 300 -5 68 -5 69 37 124 69 91 186 150 360 179 89 15 277 14 375 -2z m-1956 -212 c21 -5 57 -11 80 -14 60 -7 284 -65 295 -76 6 -5 16 -9 24 -9 27 0 305 -134 323 -157 6 -7 16 -13 21 -13 13 0 228 -172 258 -207 112 -128 175 -219 231 -333 17 -36 35 -73 40 -82 5 -10 9 -23 9 -29 0 -6 6 -25 14 -42 16 -36 39 -128 56 -227 12 -64 16 -374 6 -407 -3 -10 -7 -40 -10 -66 -12 -109 -73 -304 -128 -412 -68 -133 -81 -154 -164 -255 -140 -170 -278 -270 -529 -385 -84 -39 -255 -85 -375 -101 -19 -2 -47 -7 -62 -10 -60 -12 -384 -6 -473 10 -151 27 -307 65 -321 79 -4 4 -14 7 -23 7 -9 0 -38 11 -66 25 -27 13 -56 25 -63 25 -12 0 -97 43 -147 73 -61 38 -213 150 -268 199 -66 58 -199 217 -235 279 -20 35 -87 168 -103 204 -25 57 -62 197 -75 283 -15 101 -21 327 -11 397 4 22 9 63 12 92 5 48 58 248 75 282 4 9 27 57 51 106 87 178 192 311 351 447 164 139 411 249 678 302 95 19 148 23 303 23 104 0 205 -3 226 -8z m3796 -164 c144 -25 304 -64 390 -96 37 -14 235 -112 289 -143 59 -34 226 -169 276 -223 73 -78 137 -157 158 -193 10 -19 30 -51 43 -70 13 -20 32 -56 43 -80 10 -25 22 -53 27 -62 5 -10 9 -23 9 -30 0 -7 7 -26 15 -41 30 -59 68 -285 68 -417 1 -172 -37 -392 -96 -561 -31 -86 -41 -108 -68 -159 -5 -8 -16 -31 -26 -50 -9 -19 -27 -49 -40 -66 -13 -17 -23 -34 -23 -38 0 -10 -110 -145 -163 -199 -51 -52 -199 -167 -262 -203 -45 -26 -115 -61 -160 -80 -16 -7 -46 -19 -65 -28 -39 -16 -88 -30 -190 -51 -209 -45 -398 -55 -575 -28 -55 8 -111 16 -125 18 -76 11 -262 63 -276 78 -4 4 -14 7 -22 7 -15 0 -52 15 -157 67 -263 127 -509 350 -652 588 -161 269 -237 685 -173 950 12 50 24 102 27 118 3 15 9 30 14 33 5 3 9 13 9 22 0 9 11 40 25 67 13 28 25 58 25 67 0 9 4 19 9 23 6 3 20 27 33 53 38 79 165 248 241 323 68 66 221 182 291 220 70 38 178 89 190 89 4 0 22 6 39 13 30 13 91 32 182 56 22 6 87 17 145 26 58 8 119 17 135 19 57 8 300 -3 390 -19z"/>
 <path d="M3490 3765 c-93 -14 -165 -30 -202 -44 -13 -5 -43 -15 -68 -22 -47 -13 -52 -15 -165 -70 -68 -32 -195 -108 -225 -134 -76 -67 -197 -187 -216 -215 -85 -126 -108 -164 -144 -237 -22 -46 -40 -86 -40 -90 0 -5 -6 -19 -13 -33 -81 -155 -108 -552 -52 -770 9 -36 21 -83 26 -105 6 -21 14 -44 18 -50 5 -5 14 -27 20 -47 22 -68 73 -162 129 -240 30 -43 59 -78 64 -78 4 0 8 -6 8 -12 0 -22 235 -234 273 -247 7 -2 34 -20 62 -38 213 -147 594 -246 910 -238 72 2 146 6 165 9 19 3 54 8 78 11 83 10 241 52 312 82 78 34 226 109 250 128 14 11 41 31 60 44 64 45 156 132 213 202 93 115 102 131 194 325 24 50 69 214 77 280 3 21 10 71 15 109 9 68 8 270 -3 330 -3 17 -7 46 -10 65 -11 82 -54 225 -76 255 -4 6 -13 26 -19 46 -6 20 -26 58 -43 85 -18 27 -39 61 -48 76 -43 76 -280 316 -334 338 -6 3 -27 17 -46 32 -41 31 -216 122 -269 139 -20 7 -45 18 -56 25 -11 8 -28 14 -37 14 -10 0 -26 4 -36 9 -34 17 -143 42 -285 66 -106 17 -367 17 -487 0z m-349 -785 c82 -15 150 -53 219 -122 22 -22 40 -43 40 -46 0 -3 10 -19 23 -36 31 -42 67 -157 74 -236 9 -104 -32 -240 -101 -338 -39 -56 -135 -123 -208 -146 -246 -77 -482 62 -561 329 -32 110 -4 284 64 395 39 63 138 160 164 160 3 0 24 9 48 19 65 31 148 38 238 21z"/>
 <path d="M3222 2740 c-51 -21 -79 -81 -67 -148 21 -125 173 -132 205 -10 27 97 -56 191 -138 158z"/>
 <path d="M7365 3620 c-38 -5 -95 -11 -125 -14 -30 -3 -82 -13 -115 -22 -33 -8 -71 -17 -85 -20 -14 -3 -34 -9 -45 -14 -11 -4 -36 -13 -55 -20 -56 -19 -70 -25 -175 -76 -133 -65 -213 -123 -329 -240 -136 -135 -206 -241 -281 -419 -9 -22 -21 -48 -26 -57 -5 -10 -9 -26 -9 -35 0 -10 -6 -29 -13 -43 -35 -67 -49 -175 -44 -332 3 -84 8 -166 11 -183 18 -104 27 -143 50 -209 26 -78 60 -161 77 -186 5 -8 17 -31 27 -50 27 -55 104 -170 113 -170 5 0 9 -6 9 -13 0 -8 12 -25 28 -39 15 -13 41 -40 58 -59 92 -100 260 -229 356 -274 18 -8 40 -19 48 -24 73 -45 251 -110 418 -151 121 -30 406 -44 537 -26 28 4 67 9 89 11 21 3 54 9 72 15 62 18 99 28 131 35 18 4 35 11 38 16 4 5 13 9 20 9 26 0 209 93 283 144 98 67 312 282 312 314 0 5 8 16 19 26 21 19 102 177 126 246 14 42 29 85 56 167 11 35 28 122 38 198 7 54 8 318 2 375 -5 39 -22 118 -44 197 -19 66 -99 231 -150 306 -46 69 -204 236 -261 277 -60 43 -136 94 -176 118 -62 39 -219 112 -239 112 -11 0 -22 4 -25 8 -3 5 -33 16 -68 26 -35 9 -76 21 -93 26 -54 16 -129 31 -175 35 -25 2 -88 9 -140 14 -106 12 -143 12 -245 1z m-490 -764 c92 -24 139 -51 200 -117 77 -83 110 -148 132 -259 16 -83 16 -93 -1 -176 -36 -184 -136 -313 -283 -365 -65 -24 -193 -28 -263 -9 -87 24 -218 139 -260 229 -7 14 -16 33 -21 42 -10 22 -31 134 -34 184 -4 75 47 245 90 301 112 146 283 212 440 170z"/>
 <path d="M6937 2612 c-40 -27 -58 -57 -62 -100 -9 -102 108 -182 168 -114 23 26 47 79 47 102 0 25 -33 91 -53 108 -26 22 -70 24 -100 4z"/>
 <path d="M343 8899 c-69 -16 -120 -79 -137 -170 -6 -36 -6 -36 51 -64 58 -27 133 -89 133 -110 0 -15 -33 -45 -48 -45 -6 0 -27 16 -48 35 -20 19 -44 35 -53 35 -9 0 -25 7 -35 15 -31 23 -62 18 -90 -16 -62 -73 -17 -199 119 -334 80 -80 101 -95 225 -156 36 -17 77 -38 92 -45 14 -8 35 -14 45 -14 10 0 23 -4 29 -9 9 -9 104 -32 204 -50 30 -6 103 -13 161 -17 104 -6 107 -6 119 16 20 37 1 536 -24 610 -12 36 -24 44 -146 97 -36 15 -85 42 -109 61 -24 18 -90 55 -147 82 -150 72 -260 98 -341 79z"/>
 <path d="M11267 8834 c-3 -3 -25 -10 -49 -15 -55 -13 -175 -70 -261 -125 -37 -24 -89 -55 -115 -68 -48 -25 -48 -25 -50 -78 -1 -30 -6 -103 -11 -164 -5 -60 -9 -116 -9 -124 0 -44 -13 -281 -18 -318 l-5 -43 68 2 c104 2 322 46 347 70 6 5 18 9 27 9 19 0 127 50 174 80 17 11 39 24 50 29 47 20 175 147 200 196 9 17 19 37 24 45 10 17 26 56 35 84 11 31 -5 84 -32 111 -20 20 -32 24 -54 20 -41 -10 -88 -34 -126 -67 -43 -37 -76 -34 -80 5 -2 18 4 37 15 49 30 34 100 78 133 85 31 6 32 7 25 49 -9 64 -41 120 -82 149 -33 22 -48 25 -119 25 -44 0 -83 -3 -87 -6z"/>
 <path d="M1086 2933 c-55 -19 -200 -92 -266 -134 -77 -50 -202 -170 -247 -237 -110 -167 -151 -299 -152 -487 0 -171 31 -286 127 -480 68 -134 189 -276 327 -380 66 -50 94 -67 175 -109 87 -45 84 -45 200 -77 165 -47 365 -50 540 -8 52 13 153 45 178 58 9 4 39 19 67 32 27 13 64 32 83 43 l33 19 -83 82 c-81 79 -151 156 -221 242 -19 23 -41 49 -48 57 -8 9 -39 49 -69 90 -61 83 -54 81 -145 41 -195 -86 -364 -64 -472 61 -58 67 -79 109 -99 198 -36 154 29 274 216 399 41 28 77 52 79 54 3 2 -9 38 -26 81 -35 85 -91 252 -119 352 -10 36 -23 77 -28 91 -11 25 -12 26 -50 12z"/>
 <path d="M10355 2673 c-48 -164 -78 -258 -91 -288 -7 -16 -16 -43 -20 -60 -6 -28 -34 -104 -55 -150 -5 -11 -18 -45 -28 -75 l-20 -55 28 -25 c33 -31 83 -104 101 -149 19 -47 17 -146 -4 -205 -27 -80 -99 -179 -158 -219 -79 -54 -182 -66 -313 -37 -26 6 -48 9 -49 8 -20 -33 -161 -192 -258 -290 -71 -71 -128 -131 -128 -133 0 -3 5 -5 11 -5 6 0 30 -13 53 -28 39 -26 65 -40 180 -91 26 -12 92 -34 145 -48 80 -21 120 -26 236 -27 77 0 158 2 180 5 74 12 146 31 173 45 15 8 32 14 38 14 21 0 189 92 244 132 60 45 167 151 215 212 48 62 85 116 85 125 0 5 6 14 14 20 7 6 28 46 46 89 17 42 36 84 40 93 10 18 31 94 36 124 1 11 7 43 13 70 12 65 12 236 -1 300 -13 66 -57 202 -78 240 -75 135 -139 216 -222 283 -101 82 -133 104 -173 123 -22 11 -56 28 -75 38 -55 29 -109 51 -125 51 -9 0 -23 -30 -40 -87z"/>
 </g>
<g id="layer103" fill="#6ad7e5" stroke="none">
 <path d="M1754 15891 c-22 -10 -59 -40 -83 -67 -40 -46 -42 -52 -37 -96 6 -56 28 -102 111 -228 74 -114 115 -186 115 -204 0 -18 -33 -46 -54 -46 -9 0 -25 14 -34 31 -9 17 -54 88 -100 158 -45 69 -95 159 -110 198 -15 40 -32 73 -39 73 -18 0 -59 -58 -84 -120 -30 -74 -32 -203 -5 -275 44 -115 144 -241 288 -361 122 -101 395 -294 417 -294 10 0 49 25 87 56 171 141 420 300 655 419 l133 68 -75 26 c-163 58 -291 144 -576 385 -150 127 -295 226 -390 266 -81 35 -158 39 -219 11z"/>
 <path d="M9716 15774 c-109 -35 -215 -128 -427 -374 -130 -151 -273 -293 -337 -335 l-42 -28 57 -34 c208 -126 467 -317 585 -430 l46 -45 84 63 c115 88 288 257 364 359 161 213 216 394 163 536 -20 52 -93 144 -115 144 -5 0 -29 -53 -53 -118 -53 -141 -95 -221 -151 -285 -45 -51 -67 -58 -93 -29 -24 26 -22 35 17 81 50 60 90 134 131 241 19 52 39 104 45 115 23 52 22 61 -17 87 -97 64 -172 79 -257 52z"/>
 <path d="M5530 15653 c-1016 -23 -2020 -268 -2730 -666 -98 -54 -88 -48 -205 -122 -759 -474 -1225 -1166 -1429 -2120 -95 -447 -128 -817 -128 -1455 1 -536 13 -776 96 -1830 59 -740 61 -782 61 -1320 0 -578 -8 -725 -85 -1655 -85 -1018 -95 -1204 -95 -1750 0 -553 20 -842 85 -1230 75 -442 208 -900 351 -1203 27 -57 49 -105 49 -107 0 -1 34 -64 76 -140 389 -710 985 -1203 1849 -1528 533 -201 1144 -327 2005 -413 247 -25 286 -26 580 -20 937 18 1611 121 2205 337 77 28 168 64 202 80 35 16 93 43 129 59 97 45 302 161 407 232 295 197 564 453 774 738 143 194 286 433 343 575 296 739 465 1579 530 2640 22 370 31 721 40 1685 11 1196 17 1381 65 2120 65 993 85 1452 85 1925 0 1090 -129 1940 -405 2665 -26 69 -55 143 -65 165 -10 22 -29 65 -43 95 -96 214 -181 369 -295 533 -148 216 -296 386 -477 550 -701 634 -1725 1020 -3000 1132 -196 17 -637 36 -780 33 -49 -1 -137 -3 -195 -5z m677 -9939 c112 -42 177 -85 219 -145 l29 -42 4 -194 c2 -106 -2 -259 -8 -340 -6 -80 -10 -147 -9 -149 2 -1 28 4 58 12 36 10 87 14 146 12 120 -5 192 -39 288 -135 124 -124 172 -278 132 -417 -52 -178 -242 -368 -515 -514 l-95 -51 3 -56 c6 -140 -87 -276 -245 -354 -114 -56 -210 -75 -379 -74 -128 0 -164 4 -247 26 -193 51 -338 156 -403 291 -18 39 -36 96 -40 127 l-7 56 -71 21 c-222 66 -404 276 -444 511 -13 78 -13 97 0 169 39 205 163 342 339 372 l65 11 -5 157 c-3 129 0 175 16 258 59 298 201 464 384 452 86 -5 162 -45 259 -136 l77 -72 36 49 c62 84 156 149 256 177 25 7 48 13 52 13 4 1 52 -15 105 -35z m-2182 -1874 c643 -104 1133 -516 1264 -1061 59 -247 51 -535 -24 -794 -35 -121 -130 -312 -203 -410 -70 -94 -200 -221 -293 -288 -399 -284 -985 -355 -1509 -181 -497 164 -869 550 -970 1004 -86 391 -22 791 175 1100 158 247 372 423 650 536 203 83 360 112 610 113 135 1 210 -4 300 -19z m3749 -155 c143 -23 213 -41 334 -84 227 -82 406 -189 563 -339 272 -259 402 -564 402 -942 -1 -591 -294 -1088 -778 -1320 -112 -54 -256 -101 -390 -127 -138 -27 -452 -24 -606 5 -194 36 -329 83 -506 173 -405 207 -703 585 -787 999 -39 196 -45 362 -16 497 62 293 188 531 386 728 172 171 378 293 610 360 251 73 535 91 788 50z"/>
 <path d="M6017 5625 c-71 -33 -124 -80 -164 -143 l-36 -56 -1 -185 c-1 -248 22 -571 43 -579 22 -8 152 16 234 44 112 38 249 97 253 108 2 6 10 117 19 247 16 240 11 411 -15 459 -17 33 -72 67 -155 99 -94 36 -114 37 -178 6z"/>
 <path d="M5334 5616 c-113 -49 -208 -262 -221 -491 -6 -112 2 -251 16 -274 4 -6 37 -19 72 -27 35 -8 152 -43 259 -78 107 -36 212 -68 234 -71 l39 -8 -6 44 c-16 116 -29 402 -25 549 l4 164 -69 73 c-109 115 -216 157 -303 119z"/>
 <path d="M6495 4761 c-33 -10 -122 -44 -199 -75 -221 -89 -284 -106 -422 -113 -147 -7 -200 3 -449 88 -96 32 -207 66 -246 75 -91 21 -229 16 -281 -10 -57 -28 -115 -91 -150 -165 -27 -57 -33 -80 -36 -161 -4 -82 -1 -106 20 -166 59 -170 208 -314 375 -364 l42 -13 52 57 c93 101 239 152 469 163 275 13 572 -71 695 -196 22 -22 46 -41 54 -41 22 0 205 107 288 169 104 77 205 188 245 269 65 132 39 260 -79 384 -79 83 -153 118 -248 117 -38 0 -97 -9 -130 -18z"/>
 <path d="M3519 3765 c-475 -65 -851 -322 -1043 -713 -104 -214 -131 -339 -131 -612 0 -208 8 -260 61 -422 167 -507 677 -863 1315 -918 341 -29 709 63 977 243 104 70 258 224 322 322 260 400 298 938 95 1338 -105 207 -249 367 -450 500 -330 218 -754 315 -1146 262z m-338 -791 c199 -59 333 -270 316 -502 -6 -97 -33 -174 -87 -251 -79 -113 -190 -178 -319 -188 -134 -10 -243 30 -334 124 -65 67 -92 110 -118 184 -91 265 45 555 296 635 57 18 182 17 246 -2z"/>
 <path d="M3197 2719 c-84 -65 -40 -220 62 -219 62 1 101 48 101 123 0 42 -5 54 -34 83 -41 41 -89 46 -129 13z"/>
 <path d="M7265 3605 c-262 -36 -507 -133 -695 -274 -82 -62 -223 -208 -277 -286 -102 -151 -192 -368 -223 -539 -16 -84 -8 -284 15 -402 71 -368 289 -690 603 -891 76 -48 199 -115 242 -132 19 -8 49 -20 65 -27 267 -115 698 -148 985 -75 170 44 356 129 478 220 181 136 348 354 418 546 114 311 141 580 84 843 -114 535 -590 924 -1243 1017 -122 18 -328 18 -452 0z m-310 -771 c127 -62 228 -199 255 -348 45 -246 -97 -498 -318 -562 -72 -21 -187 -14 -265 16 -115 44 -234 185 -266 315 -52 214 25 438 191 547 80 54 136 68 248 65 80 -3 104 -8 155 -33z"/>
 <path d="M6924 2602 c-31 -25 -44 -55 -44 -102 0 -73 39 -120 100 -120 61 0 100 47 100 120 0 73 -39 120 -100 120 -19 0 -45 -8 -56 -18z"/>
 <path d="M313 8881 c-49 -23 -86 -76 -100 -143 l-10 -46 55 -22 c62 -26 132 -88 132 -116 0 -45 -53 -59 -86 -23 -10 12 -45 34 -78 50 -47 22 -62 26 -82 17 -25 -12 -54 -63 -54 -97 0 -61 90 -213 164 -279 173 -151 495 -262 764 -262 l92 0 0 188 c0 215 -14 398 -34 446 -10 25 -23 35 -57 45 -53 16 -129 54 -184 91 -71 49 -209 119 -275 140 -96 32 -195 36 -247 11z"/>
 <path d="M11205 8810 c-95 -33 -156 -64 -298 -153 -48 -31 -92 -57 -98 -59 -10 -3 -31 -252 -44 -547 l-8 -154 84 7 c285 25 574 149 714 308 56 65 115 179 115 224 0 43 -17 80 -45 98 -20 13 -28 13 -70 -3 -26 -10 -64 -32 -83 -50 -19 -17 -46 -31 -58 -31 -27 0 -48 32 -39 60 9 27 74 77 134 101 48 20 50 23 44 53 -11 59 -41 113 -78 142 -32 24 -49 29 -109 32 -58 2 -87 -3 -161 -28z"/>
 <path d="M1110 2942 c-8 -2 -43 -17 -78 -33 -35 -16 -65 -29 -67 -29 -13 0 -144 -85 -213 -138 -222 -171 -344 -434 -329 -707 23 -393 301 -784 673 -948 313 -137 615 -127 953 34 l103 49 -107 107 c-120 120 -222 238 -310 358 -33 44 -60 81 -60 82 -1 2 -26 -9 -55 -23 -72 -35 -191 -64 -260 -64 -91 0 -152 23 -218 85 -129 119 -174 293 -112 431 29 63 130 162 215 211 48 27 64 42 59 53 -27 65 -84 229 -121 350 -24 80 -48 154 -51 166 -4 13 -13 19 -22 16z"/>
 <path d="M10365 2693 c-34 -127 -159 -499 -194 -578 -31 -71 -31 -67 17 -115 106 -106 125 -244 53 -395 -60 -127 -155 -200 -277 -211 -62 -6 -152 4 -195 21 -11 4 -34 -17 -79 -72 -36 -43 -123 -138 -194 -211 -150 -153 -151 -130 9 -211 265 -133 539 -163 795 -85 328 100 610 379 720 713 58 176 72 320 45 474 -53 302 -239 531 -563 692 -50 25 -97 45 -105 45 -9 0 -21 -24 -32 -67z"/>
 </g>
<g id="layer104" fill="#f6d2a2" stroke="none">
 <path d="M1754 15891 c-22 -10 -59 -40 -83 -67 -40 -46 -42 -52 -37 -96 6 -56 28 -102 111 -228 74 -114 115 -186 115 -204 0 -18 -33 -46 -54 -46 -9 0 -25 14 -34 31 -9 17 -54 88 -100 158 -45 69 -95 159 -110 198 -15 40 -32 73 -39 73 -18 0 -59 -58 -84 -120 -30 -74 -32 -203 -5 -275 44 -115 144 -241 288 -361 122 -101 395 -294 417 -294 10 0 49 25 87 56 171 141 420 300 655 419 l133 68 -75 26 c-163 58 -291 144 -576 385 -150 127 -295 226 -390 266 -81 35 -158 39 -219 11z"/>
 <path d="M9716 15774 c-109 -35 -215 -128 -427 -374 -130 -151 -273 -293 -337 -335 l-42 -28 57 -34 c208 -126 467 -317 585 -430 l46 -45 84 63 c115 88 288 257 364 359 161 213 216 394 163 536 -20 52 -93 144 -115 144 -5 0 -29 -53 -53 -118 -53 -141 -95 -221 -151 -285 -45 -51 -67 -58 -93 -29 -24 26 -22 35 17 81 50 60 90 134 131 241 19 52 39 104 45 115 23 52 22 61 -17 87 -97 64 -172 79 -257 52z"/>
 <path d="M313 8881 c-49 -23 -86 -76 -100 -143 l-10 -46 55 -22 c62 -26 132 -88 132 -116 0 -45 -53 -59 -86 -23 -10 12 -45 34 -78 50 -47 22 -62 26 -82 17 -25 -12 -54 -63 -54 -97 0 -61 90 -213 164 -279 173 -151 495 -262 764 -262 l92 0 0 188 c0 215 -14 398 -34 446 -10 25 -23 35 -57 45 -53 16 -129 54 -184 91 -71 49 -209 119 -275 140 -96 32 -195 36 -247 11z"/>
 <path d="M11205 8810 c-95 -33 -156 -64 -298 -153 -48 -31 -92 -57 -98 -59 -10 -3 -31 -252 -44 -547 l-8 -154 84 7 c285 25 574 149 714 308 56 65 115 179 115 224 0 43 -17 80 -45 98 -20 13 -28 13 -70 -3 -26 -10 -64 -32 -83 -50 -19 -17 -46 -31 -58 -31 -27 0 -48 32 -39 60 9 27 74 77 134 101 48 20 50 23 44 53 -11 59 -41 113 -78 142 -32 24 -49 29 -109 32 -58 2 -87 -3 -161 -28z"/>
 <path d="M6017 5625 c-71 -33 -124 -80 -164 -143 l-36 -56 -1 -185 c-1 -248 22 -571 43 -579 22 -8 152 16 234 44 112 38 249 97 253 108 2 6 10 117 19 247 16 240 11 411 -15 459 -17 33 -72 67 -155 99 -94 36 -114 37 -178 6z"/>
 <path d="M5334 5616 c-113 -49 -208 -262 -221 -491 -6 -112 2 -251 16 -274 4 -6 37 -19 72 -27 35 -8 152 -43 259 -78 107 -36 212 -68 234 -71 l39 -8 -6 44 c-16 116 -29 402 -25 549 l4 164 -69 73 c-109 115 -216 157 -303 119z"/>
 <path d="M6495 4761 c-33 -10 -122 -44 -199 -75 -221 -89 -284 -106 -422 -113 -147 -7 -200 3 -449 88 -96 32 -207 66 -246 75 -91 21 -229 16 -281 -10 -57 -28 -115 -91 -150 -165 -27 -57 -33 -80 -36 -161 -4 -82 -1 -106 20 -166 59 -170 208 -314 375 -364 l42 -13 52 57 c93 101 239 152 469 163 275 13 572 -71 695 -196 22 -22 46 -41 54 -41 22 0 205 107 288 169 104 77 205 188 245 269 65 132 39 260 -79 384 -79 83 -153 118 -248 117 -38 0 -97 -9 -130 -18z"/>
 <path d="M3519 3765 c-475 -65 -851 -322 -1043 -713 -104 -214 -131 -339 -131 -612 0 -208 8 -260 61 -422 167 -507 677 -863 1315 -918 341 -29 709 63 977 243 104 70 258 224 322 322 260 400 298 938 95 1338 -105 207 -249 367 -450 500 -330 218 -754 315 -1146 262z m-338 -791 c199 -59 333 -270 316 -502 -6 -97 -33 -174 -87 -251 -79 -113 -190 -178 -319 -188 -134 -10 -243 30 -334 124 -65 67 -92 110 -118 184 -91 265 45 555 296 635 57 18 182 17 246 -2z"/>
 <path d="M3197 2719 c-84 -65 -40 -220 62 -219 62 1 101 48 101 123 0 42 -5 54 -34 83 -41 41 -89 46 -129 13z"/>
 <path d="M7265 3605 c-262 -36 -507 -133 -695 -274 -82 -62 -223 -208 -277 -286 -102 -151 -192 -368 -223 -539 -16 -84 -8 -284 15 -402 71 -368 289 -690 603 -891 76 -48 199 -115 242 -132 19 -8 49 -20 65 -27 267 -115 698 -148 985 -75 170 44 356 129 478 220 181 136 348 354 418 546 114 311 141 580 84 843 -114 535 -590 924 -1243 1017 -122 18 -328 18 -452 0z m-310 -771 c127 -62 228 -199 255 -348 45 -246 -97 -498 -318 -562 -72 -21 -187 -14 -265 16 -115 44 -234 185 -266 315 -52 214 25 438 191 547 80 54 136 68 248 65 80 -3 104 -8 155 -33z"/>
 <path d="M6924 2602 c-31 -25 -44 -55 -44 -102 0 -73 39 -120 100 -120 61 0 100 47 100 120 0 73 -39 120 -100 120 -19 0 -45 -8 -56 -18z"/>
 </g>
<g id="layer105" fill="#ffffff" stroke="none">
 <path d="M6046 5634 c-93 -34 -159 -92 -200 -176 -26 -54 -28 -65 -29 -205 -2 -131 4 -267 19 -428 3 -27 6 -75 7 -105 l2 -55 59 3 c55 2 229 45 251 61 6 4 26 14 45 21 19 7 61 24 93 39 l57 25 2 56 c3 81 5 113 14 235 14 174 9 318 -12 394 -9 30 -71 89 -103 98 -14 3 -36 12 -50 19 -14 8 -34 14 -43 14 -9 0 -20 5 -23 10 -8 14 -42 11 -89 -6z"/>
 <path d="M5362 5623 c-56 -11 -149 -104 -168 -167 -3 -12 -12 -34 -19 -51 -22 -52 -46 -137 -52 -184 -13 -103 -6 -361 10 -377 3 -3 21 -7 42 -10 20 -2 62 -13 93 -24 31 -11 63 -20 72 -20 8 0 28 -7 44 -15 15 -8 36 -15 45 -15 9 0 21 -4 27 -9 9 -9 114 -42 199 -62 22 -5 48 -12 59 -15 17 -6 18 -2 12 37 -3 24 -9 78 -11 119 -3 41 -7 98 -9 125 -13 163 -16 308 -8 363 5 35 7 75 4 88 -6 34 -127 155 -188 186 -51 28 -111 40 -152 31z"/>
 <path d="M3607 3773 c-1 0 -24 -4 -52 -7 -114 -13 -144 -18 -217 -37 -43 -11 -90 -24 -105 -31 -16 -6 -41 -16 -58 -23 -16 -7 -41 -16 -55 -20 -95 -28 -352 -203 -430 -292 -138 -158 -227 -314 -293 -513 -23 -70 -28 -93 -45 -210 -8 -57 -8 -330 1 -394 10 -84 45 -218 72 -281 87 -200 144 -283 290 -427 115 -113 108 -107 190 -163 73 -49 312 -170 355 -178 14 -3 45 -13 69 -22 25 -9 68 -21 95 -27 28 -5 71 -14 96 -20 25 -5 61 -11 80 -13 19 -2 53 -6 75 -9 122 -14 189 -16 265 -7 47 6 112 13 145 16 33 4 77 11 98 16 100 25 121 31 189 53 222 73 426 214 601 416 60 70 148 235 192 360 39 115 56 199 70 350 3 30 8 71 11 91 6 39 -10 212 -27 294 -21 99 -74 256 -107 314 -14 25 -34 62 -45 81 -72 130 -244 308 -392 405 -156 104 -310 174 -475 216 -41 11 -91 24 -111 30 -20 6 -49 12 -65 13 -16 2 -45 6 -64 10 -29 6 -348 14 -353 9z m-443 -795 c76 -22 126 -50 186 -104 43 -39 98 -120 118 -174 16 -42 38 -159 37 -192 -9 -180 -86 -322 -226 -415 -127 -84 -311 -84 -449 0 -67 40 -147 137 -180 217 -51 121 -53 270 -7 395 30 81 136 203 206 236 125 60 205 69 315 37z"/>
 <path d="M3194 2708 c-40 -42 -47 -65 -35 -118 10 -47 51 -89 87 -90 38 0 81 21 95 47 8 14 14 50 13 80 0 66 -30 102 -90 110 -34 4 -43 1 -70 -29z"/>
 <path d="M7349 3615 c-3 -2 -27 -6 -54 -9 -82 -9 -138 -17 -146 -22 -4 -2 -27 -8 -51 -13 -75 -16 -156 -40 -205 -62 -138 -61 -244 -118 -279 -150 -11 -10 -23 -19 -27 -19 -17 0 -277 -255 -277 -272 0 -7 -9 -21 -19 -32 -53 -58 -152 -266 -182 -381 -4 -16 -15 -57 -24 -90 -27 -94 -24 -370 5 -485 40 -161 69 -241 127 -348 80 -151 231 -337 343 -422 18 -14 47 -37 64 -51 106 -87 359 -210 521 -254 109 -30 139 -37 225 -50 100 -15 378 -18 439 -4 23 5 65 11 92 14 28 3 59 9 69 15 10 5 28 10 39 10 25 0 202 68 283 108 129 64 341 239 407 336 99 147 136 212 175 314 9 23 23 59 31 80 8 20 19 55 24 77 5 22 17 67 25 100 56 223 38 567 -40 743 -18 42 -84 174 -99 200 -91 156 -269 327 -453 437 -9 6 -33 20 -53 32 -20 12 -65 34 -100 48 -35 14 -77 32 -94 39 -16 8 -57 21 -90 31 -33 10 -78 23 -100 30 -22 7 -76 18 -120 25 -44 7 -91 14 -105 17 -35 6 -346 14 -351 8z m-477 -749 c20 -3 45 -9 55 -15 10 -5 25 -12 33 -16 26 -10 56 -30 73 -47 9 -9 27 -25 39 -35 31 -24 99 -125 116 -171 20 -54 24 -77 29 -172 8 -150 -41 -278 -147 -382 -71 -69 -112 -91 -216 -113 l-81 -18 -93 27 c-51 15 -104 35 -119 45 -46 33 -147 145 -164 181 -69 149 -71 351 -4 470 111 201 259 277 479 246z"/>
 <path d="M6924 2602 c-31 -25 -44 -55 -44 -102 0 -73 39 -119 101 -120 51 0 85 35 94 94 9 59 1 92 -32 122 -31 29 -88 32 -119 6z"/>
 </g>

</svg>