<!DOCTYPE svg PUBLIC "-//W3C//DTD SVG 20010904//EN" "http://www.w3.org/TR/2001/REC-SVG-20010904/DTD/svg10.dtd">
<svg version="1.0" xmlns="http://www.w3.org/2000/svg" width="800px" height="600px" viewBox="0 0 8000 6000" preserveAspectRatio="xMidYMid meet">
<g id="layer101" fill="#f88215" stroke="none">
 <path d="M1000 3000 l0 -3000 3000 0 c1796 0 3000 4 3000 9 0 5 -671 677 -1490 1493 l-1490 1483 1489 1500 c820 825 1490 1503 1491 1508 0 4 -1350 7 -3000 7 l-3000 0 0 -3000z"/>
 </g>
<g id="layer102" fill="#e37060" stroke="none">
 <path d="M1000 3000 l0 -3000 1507 0 1507 0 -40 43 c-120 126 -1017 1073 -1318 1392 -192 204 -379 401 -415 439 -36 39 -58 64 -48 56 17 -12 79 47 730 698 l711 711 -19 23 c-11 13 73 -68 186 -179 112 -112 207 -203 209 -203 7 0 2984 3000 2988 3011 2 5 -1243 9 -2997 9 l-3001 0 0 -3000z"/>
 </g>
<g id="layer103" fill="#14a4ff" stroke="none">
 <path d="M1000 3000 l0 -3000 1507 0 1508 0 -76 78 c-81 82 -1682 1770 -2341 2467 -329 349 -482 516 -433 472 5 -4 323 306 707 690 590 589 695 699 685 713 -16 20 973 -954 1238 -1219 115 -116 214 -211 220 -211 10 0 2977 2984 2983 3001 2 5 -1244 9 -2997 9 l-3001 0 0 -3000z"/>
 </g>
<g id="layer104" fill="#d2609a" stroke="none">
 <path d="M1000 4585 l0 -1421 346 -364 c190 -201 377 -396 416 -435 39 -38 -71 81 -245 265 -262 278 -398 428 -352 387 5 -4 323 306 707 690 590 589 695 699 685 713 -16 20 973 -954 1238 -1219 115 -116 214 -211 220 -211 10 0 2977 2984 2983 3001 2 5 -482 9 -1160 9 l-1163 0 -914 -914 c-643 -643 -911 -918 -906 -927 4 -8 -412 404 -924 916 l-931 930 0 -1420z"/>
 <path d="M1925 2190 c44 -44 82 -80 85 -80 2 0 -31 36 -75 80 -44 44 -82 80 -85 80 -2 0 31 -36 75 -80z"/>
 <path d="M2040 2067 c0 -1 35 -36 78 -77 l77 -75 -75 78 c-69 71 -80 82 -80 74z"/>
 <path d="M2295 1800 c38 -38 72 -70 74 -70 3 0 -26 32 -64 70 -38 39 -72 70 -74 70 -3 0 26 -31 64 -70z"/>
 <path d="M2470 1613 c41 -43 103 -107 137 -143 l63 -65 -703 -703 -702 -702 1374 0 1374 0 -84 88 c-46 48 -407 428 -803 845 -395 416 -721 757 -724 757 -4 0 27 -35 68 -77z"/>
 </g>
<g id="layer105" fill="#577eff" stroke="none">
 <path d="M2500 4497 c828 -829 1509 -1507 1515 -1507 10 0 2977 2985 2983 3001 2 5 -497 9 -1160 9 l-1163 0 -914 -914 c-643 -643 -911 -918 -906 -927 4 -8 -413 404 -926 916 -514 511 -257 252 571 -578z"/>
 <path d="M1120 3035 c30 -30 57 -55 59 -55 3 0 -19 25 -49 55 -30 30 -57 55 -59 55 -3 0 19 -25 49 -55z"/>
 <path d="M1315 2830 c27 -27 51 -50 54 -50 3 0 -17 23 -44 50 -27 28 -51 50 -54 50 -3 0 17 -22 44 -50z"/>
 <path d="M1505 2630 c27 -27 51 -50 54 -50 3 0 -17 23 -44 50 -27 28 -51 50 -54 50 -3 0 17 -22 44 -50z"/>
 <path d="M1690 2438 c41 -45 50 -53 50 -45 0 2 -21 23 -47 47 l-48 45 45 -47z"/>
 <path d="M1885 2230 c21 -22 41 -40 44 -40 3 0 -13 18 -34 40 -21 22 -41 40 -44 40 -3 0 13 -18 34 -40z"/>
 <path d="M2075 2030 c21 -22 41 -40 44 -40 3 0 -13 18 -34 40 -21 22 -41 40 -44 40 -3 0 13 -18 34 -40z"/>
 <path d="M2265 1830 c21 -22 41 -40 44 -40 3 0 -13 18 -34 40 -21 22 -41 40 -44 40 -3 0 13 -18 34 -40z"/>
 <path d="M2440 1648 c41 -45 50 -53 50 -45 0 2 -21 23 -47 47 l-48 45 45 -47z"/>
 <path d="M2608 1467 l62 -62 -703 -703 -702 -702 1369 0 1369 0 -19 22 c-10 12 -149 160 -309 328 -159 168 -476 502 -704 743 -228 240 -417 437 -420 437 -3 0 23 -28 57 -63z"/>
 </g>
<g id="layer106" fill="#8963ff" stroke="none">
 <path d="M5205 4600 l-1400 -1400 -100 98 c-55 53 -10 6 100 -106 110 -111 205 -202 211 -202 6 0 118 109 249 243 132 133 800 806 1485 1495 685 690 1247 1258 1248 1263 2 5 -80 9 -195 9 l-198 0 -1400 -1400z"/>
 <path d="M3315 723 c14 -16 -13 -45 -337 -370 l-353 -353 689 0 689 0 -19 22 c-31 36 -593 629 -640 676 -24 23 -37 34 -29 25z"/>
 </g>

</svg>