<!DOCTYPE svg PUBLIC "-//W3C//DTD SVG 20010904//EN" "http://www.w3.org/TR/2001/REC-SVG-20010904/DTD/svg10.dtd">
<svg version="1.0" xmlns="http://www.w3.org/2000/svg" width="800px" height="800px" viewBox="0 0 8000 8000" preserveAspectRatio="xMidYMid meet">
<g id="layer101" fill="#60dafa" stroke="none">
 <path d="M2255 7404 c-33 -8 -103 -36 -155 -61 -81 -39 -108 -59 -185 -137 -69 -70 -99 -109 -130 -171 -22 -44 -43 -81 -47 -83 -5 -2 -8 -12 -8 -23 0 -10 -3 -19 -7 -19 -5 0 -16 -28 -26 -63 -10 -34 -23 -70 -28 -79 -5 -10 -9 -31 -9 -48 0 -16 -4 -30 -9 -30 -5 0 -11 -24 -15 -52 -3 -29 -10 -84 -15 -123 -13 -91 -12 -474 0 -590 6 -49 12 -120 16 -157 3 -38 9 -68 14 -68 5 0 9 -22 9 -49 0 -28 5 -53 10 -56 6 -3 10 -26 10 -50 0 -24 4 -46 9 -49 5 -3 12 -36 16 -73 4 -36 12 -75 18 -85 10 -16 8 -22 -7 -34 -11 -8 -28 -14 -38 -14 -10 0 -26 -4 -36 -9 -9 -5 -44 -17 -77 -26 -33 -10 -69 -21 -80 -25 -11 -5 -36 -13 -55 -20 -19 -7 -44 -16 -55 -20 -11 -4 -40 -15 -65 -25 -117 -45 -111 -42 -280 -123 -80 -38 -171 -86 -202 -106 -31 -20 -62 -36 -68 -36 -5 0 -10 -4 -10 -10 0 -5 -4 -10 -10 -10 -21 0 -191 -129 -289 -220 -47 -43 -128 -143 -150 -185 -12 -22 -21 -35 -21 -30 -1 14 -39 -67 -40 -82 0 -7 -4 -13 -10 -13 -5 0 -10 -9 -10 -21 0 -11 -4 -18 -8 -15 -4 2 -16 -23 -25 -57 -10 -34 -22 -76 -27 -93 -13 -41 -13 -334 0 -334 6 0 10 -13 10 -29 0 -16 7 -46 15 -67 21 -50 58 -128 66 -134 3 -3 9 -12 13 -20 28 -60 71 -114 166 -209 84 -84 149 -140 178 -154 12 -5 22 -14 22 -19 0 -4 7 -8 15 -8 8 0 15 -4 15 -10 0 -5 6 -10 14 -10 8 0 16 -3 18 -8 6 -13 175 -117 210 -129 10 -3 18 -9 18 -14 0 -5 9 -9 20 -9 11 0 20 -4 20 -10 0 -5 5 -10 12 -10 6 0 43 -15 82 -34 39 -18 89 -41 111 -50 22 -9 48 -21 57 -26 10 -6 25 -10 33 -10 8 0 15 -4 15 -10 0 -5 11 -10 24 -10 14 0 27 -4 30 -9 4 -5 24 -12 46 -16 22 -4 42 -11 46 -16 3 -5 14 -9 25 -9 10 0 19 -4 19 -10 0 -5 14 -10 30 -10 17 0 30 -4 30 -10 0 -5 10 -10 21 -10 22 0 110 -26 141 -41 10 -5 26 -9 36 -9 15 0 18 -6 14 -32 -3 -18 -8 -35 -11 -38 -7 -5 -27 -111 -38 -195 -3 -22 -9 -44 -14 -50 -5 -5 -9 -31 -9 -58 0 -26 -4 -46 -9 -43 -5 3 -11 -29 -14 -72 -4 -42 -11 -115 -16 -162 -13 -112 -13 -495 0 -590 5 -41 12 -96 16 -123 3 -26 10 -50 14 -53 5 -3 9 -18 9 -34 0 -16 5 -32 10 -35 6 -3 10 -17 10 -30 0 -13 5 -27 10 -30 6 -3 10 -14 10 -23 0 -9 7 -30 15 -46 8 -15 15 -35 15 -42 0 -8 4 -14 8 -14 5 0 14 -16 22 -35 8 -19 17 -35 21 -35 4 0 11 -10 15 -22 14 -46 137 -181 196 -216 15 -9 28 -20 28 -24 0 -4 7 -8 15 -8 8 0 15 -4 15 -10 0 -5 8 -10 18 -10 9 0 26 -7 36 -15 11 -8 28 -15 38 -15 10 0 18 -4 18 -10 0 -5 11 -10 24 -10 14 0 28 -4 31 -10 3 -5 22 -10 41 -10 19 0 34 -4 34 -10 0 -6 67 -10 181 -10 117 0 178 3 174 10 -4 6 13 10 45 10 32 0 49 4 45 10 -4 6 8 10 29 10 19 0 37 4 41 9 3 6 26 13 50 17 25 3 48 10 51 15 3 5 16 9 30 9 14 0 22 4 19 10 -4 6 5 10 19 10 14 0 26 4 26 9 0 5 13 12 30 16 16 4 32 11 35 16 4 5 17 9 31 9 14 0 22 4 19 10 -3 5 3 10 14 10 12 0 21 3 21 8 0 4 20 16 45 27 25 11 45 23 45 27 0 5 8 8 18 8 10 0 24 9 32 20 8 10 27 22 42 25 15 4 28 11 28 16 0 5 5 9 11 9 7 0 19 8 28 19 9 10 26 21 39 25 12 4 22 12 22 17 0 5 6 9 13 9 7 0 22 8 33 18 11 11 25 21 31 23 11 4 30 20 178 139 142 115 241 203 256 227 l14 23 42 -38 c137 -123 171 -153 198 -174 17 -12 35 -27 41 -33 6 -5 28 -23 48 -40 21 -16 47 -38 59 -47 11 -10 23 -18 27 -18 4 0 21 -13 38 -30 18 -16 34 -30 38 -30 8 0 78 -53 82 -62 2 -5 8 -8 13 -8 12 0 93 -52 97 -62 2 -5 10 -8 18 -8 8 0 14 -3 14 -7 0 -5 20 -17 45 -28 25 -11 45 -23 45 -27 0 -5 9 -8 20 -8 11 0 20 -3 20 -8 0 -4 12 -12 28 -19 15 -6 46 -20 70 -30 23 -10 42 -21 42 -25 0 -5 11 -8 25 -8 14 0 25 -4 25 -8 0 -8 106 -42 133 -42 9 0 17 -4 17 -10 0 -5 16 -10 35 -10 19 0 35 -4 35 -10 0 -5 18 -10 39 -10 22 0 43 -5 46 -10 8 -14 355 -14 355 0 0 6 18 10 40 10 22 0 40 5 40 10 0 6 8 10 19 10 10 0 32 7 47 15 16 8 37 15 47 15 9 0 17 5 17 10 0 6 9 10 20 10 11 0 20 3 20 8 0 4 17 16 37 27 60 32 172 144 225 225 54 82 85 145 113 230 10 30 21 64 26 75 13 34 25 103 50 280 14 103 5 467 -16 640 -8 72 -18 153 -21 180 -3 28 -10 54 -15 60 -5 5 -9 22 -9 37 0 28 -3 43 -39 190 l-18 76 21 11 c23 11 87 26 99 23 4 -1 7 3 7 8 0 6 14 10 30 10 17 0 30 5 30 10 0 6 13 10 29 10 16 0 31 3 33 8 4 9 100 42 122 42 9 0 16 5 16 10 0 6 11 10 25 10 14 0 25 5 25 10 0 6 6 10 14 10 7 0 27 7 42 15 16 8 37 15 47 15 9 0 17 5 17 10 0 6 11 10 25 10 14 0 25 5 25 10 0 6 9 10 20 10 11 0 20 5 20 10 0 6 4 10 10 10 17 0 90 34 90 42 0 5 9 8 20 8 11 0 20 3 20 8 0 8 73 42 91 42 5 0 7 5 4 10 -3 6 3 10 14 10 12 0 21 5 21 10 0 6 7 10 15 10 8 0 15 4 15 10 0 5 11 12 25 16 14 3 25 10 25 15 0 5 7 9 16 9 9 0 25 9 35 21 9 11 20 19 22 17 3 -2 18 9 34 23 17 14 34 28 40 30 15 6 99 77 158 134 114 111 223 285 262 420 25 86 25 345 0 430 -51 172 -172 344 -347 496 -75 65 -205 159 -220 159 -6 0 -10 5 -10 10 0 6 -4 10 -10 10 -5 0 -35 16 -66 36 -60 38 -339 174 -419 204 -19 7 -84 32 -130 50 -11 4 -36 13 -55 20 -19 7 -44 16 -55 20 -11 4 -47 16 -80 25 -33 10 -68 21 -77 26 -10 5 -26 9 -35 9 -10 0 -27 7 -37 15 -19 14 -19 17 -2 92 9 43 21 92 26 109 6 17 10 46 10 65 0 19 4 39 9 45 10 9 10 13 38 244 30 257 19 794 -18 834 -5 6 -9 23 -9 38 0 16 -4 36 -9 46 -5 9 -14 35 -21 57 -68 219 -226 417 -406 506 -137 69 -208 82 -421 77 -163 -4 -250 -16 -295 -39 -10 -5 -26 -9 -36 -9 -10 0 -22 -4 -28 -8 -5 -4 -27 -14 -49 -21 -74 -25 -221 -94 -325 -153 -64 -37 -274 -173 -292 -191 -7 -7 -42 -34 -78 -62 -100 -76 -248 -202 -317 -269 l-62 -60 -68 65 c-37 35 -92 85 -122 109 -30 25 -71 59 -90 76 -20 16 -65 52 -101 80 -36 27 -71 54 -78 61 -18 18 -228 154 -292 191 -104 59 -251 128 -325 153 -22 7 -44 17 -49 21 -6 4 -18 8 -28 8 -10 0 -26 4 -36 9 -74 38 -443 54 -557 25z m349 -403 c3 -4 29 -11 57 -15 28 -4 59 -11 70 -16 10 -6 28 -14 39 -20 11 -5 27 -10 35 -10 8 0 15 -4 15 -10 0 -5 7 -10 15 -10 14 0 85 -30 95 -40 3 -3 19 -12 35 -20 17 -8 32 -17 35 -20 3 -3 24 -14 47 -25 24 -11 43 -23 43 -27 0 -5 5 -8 10 -8 6 0 16 -5 23 -10 25 -21 88 -60 97 -60 6 0 10 -4 10 -8 0 -4 15 -16 33 -27 17 -10 39 -27 48 -37 9 -10 21 -18 28 -18 6 0 11 -3 11 -7 0 -5 16 -19 36 -33 20 -13 49 -36 64 -50 15 -14 51 -45 81 -70 29 -25 80 -70 113 -101 l60 -56 -46 -49 c-49 -53 -141 -160 -173 -202 -11 -15 -35 -42 -52 -62 -18 -19 -33 -41 -33 -48 0 -7 -4 -10 -10 -7 -5 3 -10 1 -10 -5 0 -6 -6 -17 -12 -24 -7 -7 -25 -28 -40 -47 -14 -19 -45 -57 -67 -86 -23 -29 -41 -55 -41 -58 0 -3 -12 -19 -27 -36 -16 -17 -27 -35 -26 -40 2 -5 -1 -9 -5 -9 -5 0 -17 -15 -27 -34 -20 -38 -25 -39 -175 -56 -105 -12 -191 -23 -340 -45 -63 -9 -137 -19 -165 -22 -27 -3 -54 -9 -59 -14 -6 -5 -29 -9 -52 -9 -24 0 -45 -4 -48 -9 -3 -4 -29 -11 -58 -15 -106 -14 -99 -16 -114 39 -7 28 -13 64 -14 82 0 17 -4 35 -10 38 -5 3 -10 23 -10 44 0 20 -4 41 -9 46 -10 11 -13 36 -31 210 -6 61 -16 133 -21 160 -20 98 0 470 31 586 22 79 78 202 111 240 48 57 93 99 105 99 8 0 14 5 14 10 0 6 11 10 25 10 14 0 25 5 25 10 0 12 257 14 264 1z m3026 -1 c0 -5 9 -10 21 -10 11 0 35 -8 52 -17 33 -18 157 -140 157 -155 0 -15 35 -88 42 -88 5 0 8 -9 8 -20 0 -11 4 -28 9 -38 16 -28 41 -161 41 -213 0 -26 5 -51 10 -54 6 -4 10 -75 10 -181 0 -114 -3 -173 -10 -169 -6 4 -10 -26 -10 -84 0 -49 -4 -102 -10 -116 -5 -14 -13 -64 -16 -111 -4 -46 -11 -84 -15 -84 -5 0 -9 -20 -9 -45 0 -25 -4 -45 -10 -45 -5 0 -10 -21 -10 -46 0 -27 -4 -43 -10 -39 -6 4 -10 -10 -10 -36 0 -41 0 -41 -32 -35 -18 4 -54 9 -81 12 -26 4 -50 11 -53 15 -3 5 -24 9 -48 9 -23 0 -46 4 -52 9 -5 5 -31 11 -59 14 -27 3 -102 13 -165 22 -152 22 -237 34 -340 45 -138 15 -147 18 -172 59 -21 34 -91 128 -202 271 -28 36 -53 67 -56 70 -3 3 -25 30 -50 60 -24 30 -60 73 -80 96 -19 22 -46 53 -59 70 -14 16 -46 53 -73 82 -26 30 -48 57 -48 62 0 10 286 270 297 270 7 0 98 74 101 83 2 4 10 7 18 7 9 0 12 5 9 10 -3 6 1 10 10 10 15 0 25 6 60 38 7 6 18 12 24 12 6 0 11 5 11 10 0 6 5 10 10 10 6 0 21 9 33 20 12 12 32 23 44 26 13 4 23 10 23 15 0 5 7 9 15 9 8 0 15 5 15 10 0 6 9 10 19 10 11 0 21 3 23 8 4 10 67 42 84 42 8 0 14 5 14 10 0 6 9 10 20 10 11 0 20 5 20 10 0 6 11 10 24 10 13 0 26 3 28 8 4 11 110 42 141 42 15 0 27 5 27 10 0 6 50 10 130 10 80 0 130 -4 130 -10z m-1624 -1007 c10 -10 36 -38 56 -63 20 -25 51 -61 70 -80 18 -20 46 -53 62 -75 17 -22 37 -47 46 -55 14 -14 56 -67 89 -111 13 -19 5 -19 -334 -19 l-347 0 53 68 c65 82 181 220 242 286 25 28 44 54 41 58 -9 13 2 9 22 -9z m429 -823 c4 -6 55 -10 119 -10 99 0 114 -2 120 -17 7 -22 25 -50 49 -77 9 -11 17 -26 17 -33 0 -7 3 -13 8 -13 4 0 16 -16 26 -35 11 -19 23 -35 28 -35 4 0 8 -5 8 -10 0 -14 70 -124 81 -128 5 -2 9 -12 9 -22 0 -9 7 -23 15 -30 8 -7 15 -19 15 -26 0 -8 3 -14 8 -14 4 0 12 -10 18 -23 17 -35 49 -92 54 -97 6 -6 24 -38 55 -95 12 -22 35 -62 50 -90 16 -27 38 -68 49 -90 12 -22 23 -42 26 -45 3 -3 35 -63 70 -135 36 -71 70 -133 75 -137 7 -5 6 -11 -1 -15 -9 -8 -22 -33 -55 -110 -8 -18 -17 -33 -21 -33 -5 0 -8 -9 -8 -20 0 -11 -3 -20 -8 -20 -8 0 -42 -73 -42 -90 0 -6 -4 -10 -10 -10 -5 0 -10 -9 -10 -20 0 -11 -4 -20 -10 -20 -5 0 -10 -7 -10 -15 0 -8 -3 -15 -7 -15 -5 0 -17 -20 -28 -45 -11 -25 -23 -45 -27 -45 -5 0 -8 -9 -8 -20 0 -11 -4 -20 -10 -20 -5 0 -10 -7 -10 -15 0 -8 -3 -15 -7 -15 -5 0 -17 -20 -28 -45 -11 -25 -23 -45 -27 -45 -5 0 -8 -7 -8 -15 0 -8 -3 -15 -8 -15 -4 0 -16 -20 -27 -44 -11 -24 -22 -43 -26 -41 -3 2 -18 -23 -33 -56 -16 -32 -33 -59 -37 -59 -5 0 -9 -9 -9 -21 0 -11 -4 -17 -10 -14 -5 3 -10 -1 -10 -9 0 -9 -4 -16 -10 -16 -5 0 -10 -7 -10 -15 0 -8 -4 -15 -10 -15 -5 0 -12 -11 -16 -25 -3 -14 -10 -25 -15 -25 -5 0 -9 -7 -9 -15 0 -8 -4 -15 -10 -15 -5 0 -10 -7 -10 -15 0 -8 -4 -15 -10 -15 -5 0 -10 -5 -10 -10 0 -10 -8 -22 -37 -55 -7 -7 -13 -18 -13 -23 0 -6 -8 -13 -17 -17 -26 -11 -1022 -18 -1188 -8 l-140 8 -93 140 c-126 189 -308 494 -420 705 -144 271 -162 311 -148 334 7 11 54 100 103 196 103 199 138 264 164 302 11 14 19 29 19 32 0 3 42 73 93 156 50 83 97 158 102 168 16 26 63 99 117 179 26 39 48 76 48 82 0 7 35 11 99 11 56 0 103 4 106 10 4 6 167 10 455 10 288 0 451 -4 455 -10z m-1625 -65 c0 -2 -11 -15 -25 -29 -14 -14 -25 -32 -25 -41 0 -8 -4 -15 -10 -15 -5 0 -10 -7 -10 -15 0 -8 -4 -15 -10 -15 -5 0 -12 -11 -16 -25 -3 -14 -10 -25 -15 -25 -5 0 -9 -10 -9 -22 0 -12 -3 -18 -7 -15 -3 4 -12 -4 -19 -18 -22 -43 -49 -90 -54 -95 -3 -3 -15 -25 -28 -49 -33 -64 -56 -105 -63 -111 -8 -8 -39 -77 -39 -89 0 -6 -4 -11 -9 -11 -5 0 -11 -10 -13 -22 -2 -18 -7 -14 -24 23 -39 80 -63 136 -70 165 -4 16 -15 47 -24 69 -9 22 -29 78 -44 125 -15 47 -32 93 -37 102 -14 27 -12 28 30 28 22 0 43 5 46 10 3 6 21 10 40 10 19 0 46 5 61 10 14 6 66 13 115 17 49 3 86 10 83 14 -3 5 24 9 60 9 37 0 66 4 66 10 0 6 11 10 25 10 14 0 25 -2 25 -5z m2524 -22 c4 -5 53 -14 109 -21 159 -19 181 -23 191 -33 6 -5 27 -9 48 -9 21 0 38 -4 38 -10 0 -5 8 -10 17 -10 13 0 14 -3 5 -12 -7 -7 -12 -22 -12 -35 0 -13 -4 -23 -10 -23 -5 0 -10 -8 -10 -17 0 -22 -27 -104 -51 -158 -10 -22 -26 -65 -35 -95 -9 -30 -21 -59 -25 -64 -5 -6 -9 -20 -9 -33 0 -13 -4 -23 -10 -23 -5 0 -10 -7 -10 -15 0 -21 -26 -19 -33 3 -6 17 -70 136 -99 182 -8 14 -29 50 -45 80 -36 66 -137 234 -164 273 l-20 27 59 0 c32 0 62 -3 66 -7z m-3486 -185 c5 -7 13 -32 17 -55 4 -24 11 -45 16 -49 5 -3 9 -16 9 -30 0 -13 5 -24 10 -24 6 0 10 -11 10 -24 0 -14 5 -28 10 -31 6 -3 10 -17 10 -31 0 -13 5 -24 10 -24 5 0 9 -3 9 -7 -3 -15 14 -74 22 -79 5 -3 9 -16 9 -30 0 -13 5 -24 10 -24 6 0 10 -9 10 -19 0 -11 5 -23 10 -26 6 -3 10 -13 10 -22 0 -14 7 -32 50 -128 43 -97 50 -114 50 -129 0 -9 5 -16 10 -16 6 0 10 -6 10 -13 0 -8 11 -36 25 -63 26 -51 31 -92 16 -122 -22 -40 -41 -86 -41 -99 0 -7 -4 -13 -10 -13 -5 0 -10 -9 -10 -19 0 -11 -4 -22 -8 -25 -5 -3 -17 -32 -28 -65 -10 -34 -22 -61 -26 -61 -5 0 -8 -7 -8 -15 0 -8 -4 -23 -9 -33 -21 -39 -41 -91 -41 -105 0 -9 -4 -19 -10 -22 -5 -3 -10 -17 -10 -31 0 -14 -4 -22 -10 -19 -6 3 -10 -5 -10 -19 0 -14 -4 -27 -9 -30 -5 -4 -12 -24 -16 -46 -4 -22 -11 -42 -16 -46 -5 -3 -9 -16 -9 -30 0 -13 -4 -24 -10 -24 -5 0 -10 -11 -10 -25 0 -14 -4 -25 -10 -25 -5 0 -10 -11 -10 -24 0 -14 -5 -37 -10 -52 -8 -21 -14 -24 -22 -16 -7 7 -22 12 -34 12 -13 0 -26 5 -29 10 -3 6 -15 10 -26 10 -10 0 -27 4 -37 9 -9 5 -44 17 -77 27 -33 10 -64 21 -70 24 -5 4 -30 13 -55 20 -25 7 -49 17 -55 21 -5 3 -21 10 -35 14 -62 19 -283 125 -358 172 -29 18 -55 33 -58 33 -18 0 -181 126 -252 194 -87 84 -129 138 -157 203 -9 21 -21 46 -26 55 -12 23 -12 173 0 196 5 9 17 35 27 57 11 22 38 65 60 95 42 55 187 200 201 200 5 0 22 14 40 30 18 17 37 30 42 30 6 0 11 4 11 9 0 5 8 11 18 14 34 12 101 54 95 61 -3 3 3 6 14 6 12 0 23 3 25 8 4 10 67 42 84 42 8 0 14 5 14 10 0 6 9 10 20 10 11 0 20 5 20 10 0 6 6 10 13 10 7 0 37 11 65 25 29 14 61 25 73 25 11 0 17 5 14 10 -4 6 5 10 19 10 14 0 26 5 26 10 0 6 8 10 19 10 10 0 32 7 47 15 16 8 39 15 52 15 12 0 22 5 22 10 0 6 14 10 30 10 17 0 30 5 30 10 0 6 9 10 20 10 11 0 28 4 38 9 15 8 106 37 123 40 4 1 11 -5 17 -11z m4358 -9 c3 -5 16 -9 29 -9 13 0 27 -4 30 -10 3 -5 17 -10 31 -10 13 0 24 -4 24 -10 0 -5 13 -10 29 -10 17 0 32 -4 35 -9 4 -5 24 -12 46 -16 22 -4 42 -11 46 -16 3 -5 14 -9 25 -9 10 0 19 -4 19 -10 0 -5 11 -10 25 -10 14 0 25 -4 25 -10 0 -5 8 -10 18 -10 9 0 30 -7 46 -15 15 -8 35 -15 42 -15 8 0 14 -4 14 -10 0 -5 9 -10 20 -10 11 0 20 -4 20 -10 0 -5 9 -10 19 -10 11 0 22 -4 26 -9 3 -5 19 -12 35 -16 17 -4 30 -11 30 -16 0 -5 7 -9 15 -9 8 0 15 -4 15 -10 0 -5 9 -10 20 -10 11 0 20 -3 20 -7 0 -5 20 -17 45 -28 25 -11 45 -22 45 -25 0 -3 21 -18 48 -35 26 -16 49 -32 52 -35 3 -3 21 -17 40 -30 48 -32 202 -189 219 -222 8 -16 18 -28 22 -28 4 0 10 -13 14 -30 4 -16 11 -32 16 -35 5 -4 9 -17 9 -31 0 -13 5 -24 10 -24 6 0 10 -35 10 -84 0 -47 -4 -88 -10 -91 -5 -3 -10 -17 -10 -31 0 -13 -4 -24 -10 -24 -5 0 -10 -6 -10 -13 0 -7 -9 -23 -20 -35 -11 -12 -20 -25 -20 -30 0 -17 -198 -201 -277 -255 -44 -31 -84 -57 -87 -57 -3 0 -29 -15 -58 -33 -75 -47 -296 -153 -358 -172 -14 -4 -29 -11 -35 -14 -5 -4 -30 -14 -55 -21 -25 -7 -49 -17 -55 -20 -5 -4 -50 -19 -100 -35 -49 -15 -99 -31 -110 -36 -11 -4 -35 -11 -52 -14 -28 -6 -33 -4 -33 12 0 22 -30 118 -58 183 -6 14 -18 48 -27 75 -10 28 -21 59 -25 70 -4 11 -24 63 -45 115 -45 115 -47 122 -75 185 -12 28 -29 66 -37 85 -8 19 -28 64 -44 99 -32 68 -32 71 9 161 13 30 30 69 37 85 7 17 23 53 35 80 24 54 24 56 66 160 15 39 31 74 36 79 4 6 8 18 8 28 0 10 4 26 9 36 21 42 41 94 41 107 0 9 4 23 9 33 22 44 61 160 61 183 0 12 7 14 30 11 17 -2 33 -8 36 -13z m-636 -1430 c0 -11 5 -19 10 -19 6 0 10 -9 10 -19 0 -11 3 -22 8 -25 4 -2 16 -34 27 -70 11 -36 23 -66 28 -66 4 0 7 -11 7 -25 0 -14 5 -25 10 -25 6 0 10 -11 10 -24 0 -14 4 -27 9 -30 5 -4 12 -24 16 -46 4 -22 11 -42 16 -46 5 -3 9 -16 9 -30 0 -13 6 -25 13 -25 6 -1 -8 -5 -33 -10 -25 -4 -69 -13 -97 -19 -120 -23 -163 -31 -258 -44 -55 -8 -112 -17 -127 -21 -26 -7 -23 1 54 126 79 130 161 272 226 392 18 32 32 68 32 80 0 20 2 19 15 -7 8 -15 15 -37 15 -47z m-3110 14 c0 -7 5 -13 10 -13 6 0 10 -9 10 -20 0 -11 5 -20 10 -20 6 0 10 -6 10 -14 0 -8 6 -21 13 -28 7 -7 20 -28 28 -45 7 -18 17 -33 21 -33 5 0 8 -9 8 -20 0 -11 4 -20 10 -20 5 0 12 -11 16 -25 3 -14 9 -25 13 -25 4 0 13 -16 21 -35 8 -19 17 -35 21 -35 4 0 11 -9 14 -21 4 -11 33 -62 66 -112 32 -50 57 -92 56 -94 -2 -1 -18 1 -35 6 -18 6 -69 13 -115 17 -45 3 -86 10 -92 14 -5 4 -30 10 -55 13 -25 3 -67 10 -95 16 -27 6 -66 13 -85 16 -58 10 -61 13 -51 32 5 10 21 54 36 98 14 44 30 89 35 100 4 11 25 65 45 120 20 55 40 108 46 117 5 10 9 28 9 40 0 21 0 21 15 2 8 -10 15 -25 15 -31z m-185 -893 c44 -7 88 -16 97 -21 10 -5 38 -9 63 -9 25 0 45 -4 45 -10 0 -5 24 -10 54 -10 30 0 57 -4 60 -9 4 -5 60 -12 126 -16 66 -4 123 -12 126 -16 3 -5 38 -9 79 -9 41 0 77 -4 80 -10 3 -5 26 -10 51 -10 24 0 44 -3 44 -7 0 -5 11 -21 25 -37 14 -16 25 -32 25 -36 0 -3 8 -15 18 -26 9 -10 30 -37 46 -59 17 -22 32 -42 35 -45 4 -3 11 -12 16 -21 27 -43 88 -119 95 -119 5 0 11 -8 14 -18 4 -10 26 -40 51 -67 25 -26 45 -51 45 -55 0 -4 19 -27 43 -53 23 -25 52 -58 64 -74 13 -15 46 -53 74 -83 l51 -54 -64 -61 c-137 -130 -315 -273 -462 -369 -94 -62 -310 -179 -381 -207 -194 -75 -378 -88 -492 -32 -133 64 -234 245 -265 472 -22 161 -8 610 22 721 6 19 10 52 10 72 0 20 5 40 10 43 6 3 10 23 10 44 0 20 4 41 9 47 5 5 11 27 15 49 16 119 16 117 50 112 17 -3 67 -11 111 -17z m3590 -17 c3 -21 10 -46 16 -55 5 -10 9 -33 9 -52 0 -19 5 -38 10 -41 6 -3 10 -23 10 -44 0 -21 3 -41 8 -45 9 -10 31 -168 38 -286 3 -52 10 -99 15 -104 12 -13 12 -346 0 -346 -5 0 -11 -33 -14 -72 -5 -87 -28 -208 -39 -208 -4 0 -8 -9 -8 -19 0 -11 -4 -23 -10 -26 -5 -3 -10 -15 -10 -26 0 -10 -4 -19 -10 -19 -5 0 -10 -9 -10 -21 0 -11 -4 -17 -10 -14 -5 3 -10 0 -10 -8 0 -21 -92 -109 -141 -135 -114 -61 -294 -51 -504 27 -64 24 -286 144 -381 207 -147 97 -325 239 -463 371 l-65 61 34 40 c19 22 69 80 110 128 73 84 239 287 290 354 94 123 158 215 154 222 -3 4 13 8 35 8 23 0 41 5 41 10 0 6 33 10 79 10 44 0 82 4 85 9 3 5 62 12 131 16 69 4 125 11 125 16 0 5 25 9 55 9 30 0 55 5 55 10 0 6 22 10 49 10 28 0 52 4 55 9 3 4 37 11 75 15 38 3 80 10 93 15 12 6 40 10 60 10 35 1 37 -1 43 -36z m-1544 -181 c-20 -21 -49 -56 -66 -77 -16 -21 -36 -44 -42 -51 -7 -7 -13 -15 -13 -18 0 -3 -16 -23 -36 -43 -20 -21 -63 -71 -96 -110 -33 -40 -64 -73 -68 -73 -4 0 -22 19 -41 43 -19 23 -54 65 -79 93 -56 63 -84 96 -135 159 -67 84 -70 87 -83 101 -11 12 39 14 341 14 l355 0 -37 -38z"/>
 <path d="M3875 4694 c-11 -2 -40 -9 -65 -15 -135 -32 -271 -118 -362 -228 -40 -48 -98 -153 -98 -177 0 -8 -4 -14 -10 -14 -5 0 -10 -9 -10 -20 0 -11 -4 -20 -8 -20 -5 0 -15 -39 -21 -87 -21 -147 -24 -185 -13 -207 6 -11 13 -50 16 -86 3 -35 11 -69 16 -74 6 -6 10 -20 10 -33 0 -13 5 -23 10 -23 6 0 10 -9 10 -20 0 -11 4 -20 9 -20 5 0 12 -8 15 -17 23 -63 181 -233 216 -233 6 0 10 -4 10 -8 0 -5 28 -21 63 -36 34 -15 70 -32 79 -37 10 -5 26 -9 36 -9 10 0 23 -5 30 -12 17 -17 334 -17 340 0 2 7 17 12 33 12 16 0 29 5 29 10 0 6 6 10 14 10 7 0 27 7 42 15 16 8 37 15 47 15 9 0 17 5 17 10 0 6 7 10 15 10 8 0 15 5 15 10 0 6 6 10 14 10 23 0 124 90 172 154 41 53 92 148 114 211 41 115 41 332 0 440 -90 236 -243 380 -480 452 -45 14 -267 26 -305 17z"/>
 </g>

</svg>