<!DOCTYPE svg PUBLIC "-//W3C//DTD SVG 20010904//EN" "http://www.w3.org/TR/2001/REC-SVG-20010904/DTD/svg10.dtd">
<svg version="1.0" xmlns="http://www.w3.org/2000/svg" width="400px" height="400px" viewBox="0 0 4000 4000" preserveAspectRatio="xMidYMid meet">
<g id="layer101" fill="#35495e" stroke="none">
 <path d="M1001 2010 c-546 -941 -994 -1717 -997 -1725 -5 -13 88 -15 768 -15 l774 0 223 385 c123 212 227 385 231 385 4 0 108 -173 231 -385 l223 -385 774 0 c672 0 773 2 769 15 -14 35 -1990 3435 -1997 3435 -4 0 -454 -770 -999 -1710z"/>
 </g>
<g id="layer102" fill="#41b883" stroke="none">
 <path d="M1001 2010 c-546 -941 -994 -1717 -997 -1725 -6 -13 42 -15 396 -13 l402 3 594 1025 c327 564 599 1025 604 1025 5 0 277 -461 604 -1025 l594 -1025 402 -3 c350 -2 401 0 397 12 -14 36 -1990 3436 -1997 3436 -4 0 -454 -770 -999 -1710z"/>
 </g>

</svg>